# xmcd
# 
# Track frame offsets:
#     150
#     15192
#     16940
#     32225
#     41930
#     65175
#     82502
#     102120
#     124130
#     149835
#     174717
#     192217
# 
# Disc length: 2932
# 
# Revision: 3
# Processed by: cddbd v1.5.2PL0 Copyright (c) Steve Scherf et al.
# Submitted via: fre:ac v1.0.17
# 
DISCID=9f0b720c
DTITLE=Various Artist - むしまるQゴールド～いのちのかね～
DYEAR=2000
DGENRE=アニメ
TTITLE0=中西俊博 - うららにおまかせ
TTITLE1=堀井勝美 - Ｄｒ．Ｚｏｈ!!のテーマ
TTITLE2=細川俊之，うらら（三石琴乃） - すてきなきみ
TTITLE3=飯島穣治、木田達実 - チョー（Ｅ）！
TTITLE4=影山ヒロノブ - 哀愁のヨーロッパ・バイソンやねん
TTITLE5=MISUMI - カエルのへそのお
TTITLE6=速水けんたろう - じいちゃんは、ホタルになった。
TTITLE7=GENKI - ビーター・プランクトン
TTITLE8=おおたか静流 - フクロウはしっている
TTITLE9=ブッチャー・浅野 - サバク・サバイバル～人類ラクダ化計画～
TTITLE10=川村万梨阿 - 恋してウミガメ
TTITLE11=金子マリ，おおたか静流，Genki，野村義男 - いのちのかね
EXTD=YEAR: 2000
EXTT0=
EXTT1=
EXTT2=
EXTT3=
EXTT4=
EXTT5=
EXTT6=
EXTT7=
EXTT8=
EXTT9=
EXTT10=
EXTT11=
PLAYORDER=
